<?xml version="1.0" encoding="utf-8"?>
<!-- Generator: Adobe Illustrator 26.1.0, SVG Export Plug-In . SVG Version: 6.00 Build 0)  -->
<svg version="1.1" id="Layer_1" xmlns="http://www.w3.org/2000/svg" xmlns:xlink="http://www.w3.org/1999/xlink" x="0px" y="0px"
	 viewBox="0 0 2831.31 457.96" style="enable-background:new 0 0 2831.31 457.96;" xml:space="preserve">
<style type="text/css">
	.st0{fill:#C22226;stroke:#C22226;}
	.st1{fill:#C22226;stroke:#C22226;stroke-miterlimit:10;}
</style>
<g>
	<g>
		<g>
			<path class="st0" d="M1288.71,101.28c-1.91-1.15-3.97-2.14-6.15-2.95c-2.53-0.91-5.03-1.39-7.42-1.39l-1.14,0.08
				c-4.01,0.6-7.46,2.47-10.27,5.6c-3.2,3.55-4.65,8.58-4.11,14.12v319.49c0,6.58,1.58,11.36,4.83,14.62
				c3.04,3.09,7.05,4.71,11.59,4.71c1.97,0,4.09-0.33,6.33-1.02c2.19-0.66,4.33-1.62,6.64-3.07c31.42-20.98,55.35-47.35,71.12-78.38
				c15.77-31.01,23.76-63.49,23.76-96.61c0-33.09-7.98-65.6-23.76-96.59C1344.36,148.84,1320.39,122.45,1288.71,101.28z
				 M1336.27,354.27c-10.55,22.6-26.19,42.44-46.61,59.1V140.02c20.13,16.42,35.72,36.13,46.37,58.71
				c11.81,24.98,17.81,51.08,17.81,77.53C1353.85,303.01,1347.92,329.24,1336.27,354.27z"/>
			<path class="st0" d="M1173.13,423.65l-2.45-7.89c-0.38-1.9-0.85-3.72-1.42-5.41c-0.36-1.08-0.64-2.16-1.15-4.33
				c-0.26-0.77-0.5-1.6-0.79-2.62c-0.32-1.17-0.68-2.3-0.85-2.79c-6.69-24.8-14.4-47.74-22.91-68.2
				c-6.99-16.74-16.84-30.34-29.33-40.57c13.89-9.36,24.73-20.93,32.25-34.43c9.61-17.24,14.47-35.5,14.47-54.18
				c0.3-23.08-6.51-44.93-20.34-64.93c-13.6-19.69-33.35-33.36-58.74-40.65l-1.14-1.15h-4.24c-4.45,0-8.51,1.67-11.98,4.93
				c-3.8,3.52-5.79,8.03-5.79,13.05v325.39c0,5.9,2.18,10.8,6.2,13.84c3.07,2.32,6.6,3.63,9.96,3.65c0.66,0.09,1.28,0.12,1.88,0.12
				c3.84,0,7.3-1.28,10.3-3.8c3.8-3.19,5.88-8.08,5.88-13.81v-120.1c7.53,6.4,13.68,15.02,18.35,25.69
				c7.57,17.34,14.67,36.94,20.93,57.58c0.36,2.57,0.93,5.12,1.65,7.54c0.64,2.06,1.25,4.03,1.77,5.51c0.59,2.1,1.17,4.23,1.77,6.44
				c0.6,2.32,1.21,4.6,1.83,6.73c0.59,2.08,1.17,4.23,1.76,6.45c0.62,2.32,1.23,4.59,1.84,6.71c1.03,3.64,2.71,6.64,4.94,8.89
				c2.74,2.78,5.97,4.25,9.35,4.25h1.79c4.07,0,7.79-1.18,11.11-3.48c4.3-3.03,6.7-8.01,6.65-14.72l-0.88-5.42
				C1174.9,429.25,1174.02,426.49,1173.13,423.65z M1088.78,270.92V133.55c13.13,6.76,23.35,15.97,30.39,27.45
				c8.08,13.13,12.17,27.13,12.17,41.63c0,14.22-4.09,28.1-12.17,41.21C1112.13,255.32,1101.91,264.39,1088.78,270.92z"/>
			<path class="st0" d="M710.54,102.73c-2.95-2.75-6.58-4.32-11.5-4.86c-4.01,0-7.82,1.49-11.28,4.44
				c-2.76,2.35-6.05,6.77-6.05,14.44v289.04c0,6.32-2.05,8.78-3.58,10.09c-6.05,5.07-35.41,4.96-42.24-0.26
				c-1.68-1.3-3.95-3.74-3.95-9.83V116.74c0-7.11-2.93-11.28-5.37-13.55c-3.13-2.9-6.84-4.64-10.4-4.35
				c-4.29-0.65-8.37,0.55-12.08,3.44c-4.09,3.18-6.36,8.3-6.36,14.46v289.04c0,6.32-2.06,8.78-3.59,10.09
				c-6.36,5.42-37.49,5.42-42.65-0.46c-1.34-1.52-3.59-3.7-3.59-9.63V116.74c0-7.5-2.93-11.75-5.37-14.01
				c-2.91-2.68-6.46-4.3-10.9-4.83l-1.04-0.03l-2.22,0.1c-3.32,0.55-6.56,2.23-9.56,5.01c-2.55,2.35-5.59,6.65-5.59,13.76v289.04
				c0,15.15,5.26,27.47,15.63,36.62c9.88,8.76,20.81,13.16,32.98,13.16l26.21-0.05c6.06-0.71,12.03-2.62,17.7-5.67
				c3.14-1.69,6.14-3.76,8.88-6.19c2.81,2.42,5.81,4.44,9.04,6.05c5.7,2.9,11.58,4.66,18.41,5.41l25.81,0.01
				c11.89,0,22.79-4.19,32.35-12.46c10.41-9,15.69-21.4,15.69-36.89V116.74C715.93,109.25,713,105,710.54,102.73z"/>
			<path class="st0" d="M956.7,330.56h-13.74V160.82c0-20.75-6.6-36.52-19.55-46.88c-12.2-9.72-25.97-14.82-41.03-15.18
				c-15.29,0-29.45,5.1-42.14,15.16C826.81,124.6,820,140.37,820,160.82v169.73h-14.18c-5.42,0-9.92,1.97-13.02,5.72
				c-2.84,3.44-4.32,7.66-4.32,12.36l0.08,2.12c0.59,4.15,2.34,7.7,5.19,10.55c3.09,3.15,7.14,4.73,12.07,4.73H820v71.56
				c0,5.7,2.08,10.61,5.88,13.79c6.49,5.46,16.09,5.39,22.48,0c3.79-3.18,5.86-8.09,5.86-13.79v-71.56h54.51v71.56
				c0,5.7,2.11,10.6,5.88,13.79c3.3,2.77,7.01,4.17,11.02,4.17c4.32,0,8.17-1.4,11.45-4.17c3.79-3.18,5.9-8.06,5.9-13.79v-71.56
				h13.74c5.16,0,9.69-2.21,12.77-6.24c2.74-3.59,4.11-7.53,4.11-11.74c0-4.6-1.37-8.61-4.07-11.97
				C967.45,333.57,963.54,330.56,956.7,330.56z M912.89,334.99h-62.83V160.81c0-9.85,3.02-17.18,9.23-22.41
				c6.55-5.5,13.41-8.3,20.99-8.59l1.33,0.01l1.16-0.04c7.65,0,14.44,2.48,20.76,7.57c6.3,5.05,9.37,12.75,9.37,23.47V334.99z"/>
			<path class="st0" d="M169.63,330.56h-14.64V115.82c0-7.46-2.93-11.73-5.4-14.02c-6.04-5.52-15.61-5.76-22.48-0.44
				c-4.11,3.18-6.36,8.32-6.36,14.46v214.73H66.7V115.82c0-6-1.81-10.69-5.39-14.02c-6.07-5.54-15.57-5.78-22.5-0.44
				c-4.09,3.18-6.33,8.32-6.33,14.46v214.73H18.28c-5.19,0-9.46,1.65-12.72,4.92c-3.32,3.36-5.07,7.71-5.07,12.58
				c0,4.38,1.53,8.43,4.58,12.05c2.25,2.7,6.39,5.94,13.2,5.94h14.19v71.56c0,5.7,2.08,10.61,5.86,13.79
				c6.47,5.46,16.1,5.42,22.48,0c3.8-3.18,5.89-8.06,5.89-13.79v-71.56h54.05v71.56c0,5.73,2.09,10.62,5.85,13.79
				c3.3,2.77,7.02,4.17,11.02,4.17c4.33,0,8.2-1.4,11.48-4.17c3.79-3.18,5.89-8.09,5.89-13.79v-71.56h14.64c5.4,0,9.88-1.97,13-5.74
				c2.81-3.39,4.34-7.41,4.25-10.61c0.6-4.93-0.74-9.68-3.81-13.41C179.92,332.47,175.41,330.56,169.63,330.56z"/>
			<path class="st0" d="M420.67,199.39c-4.97-24.5-13.43-47.3-25.12-67.75c-12.82-22.42-31.64-33.78-55.98-33.78
				c-24.36,0-43.11,11.36-55.77,33.82c-11.53,20.45-19.93,43.26-24.92,67.81c-2.74,14.57-4.7,28.91-5.74,42.61
				c-1.09,13.6-1.63,25.24-1.63,34.62c0,9.38,0.54,21.03,1.63,34.58c1.04,13.71,3,28.23,5.76,43.2
				c4.96,24.46,13.36,47.16,24.9,67.48c12.69,22.28,31.45,33.58,55.77,33.58c24.33,0,43.16-11.27,55.98-33.54
				c11.71-20.35,20.03-43.08,24.68-67.5c3.05-14.87,5.17-29.39,6.23-43.22c1.07-13.7,1.63-25.32,1.63-34.58
				c0-9.24-0.56-20.91-1.63-34.62C425.4,228.31,423.44,213.94,420.67,199.39z M392.9,304.58c-0.85,12.29-2.61,25.34-5.18,38.8
				c-3.69,19.01-9.71,36.6-17.94,52.33c-7.74,14.85-18.33,22.06-32.27,22.06c-13.99,0-24.57-7.21-32.3-22.06
				c-8.21-15.69-14.08-33.27-17.5-52.32c-2.58-13.49-4.32-26.54-5.18-38.8c-0.85-12.32-1.28-22.09-1.28-28.97
				c0-6.9,0.43-16.64,1.28-28.98c0.86-12.25,2.6-25.15,5.18-38.39c3.41-19.01,9.29-36.65,17.5-52.52
				c7.77-14.98,18.32-22.26,32.3-22.26c13.94,0,24.52,7.28,32.27,22.26c8.22,15.88,14.25,33.55,17.94,52.58
				c2.57,13.17,4.33,26.07,5.18,38.33c0.87,12.4,1.31,22.15,1.31,28.98C394.21,282.44,393.77,292.18,392.9,304.58z"/>
			<path class="st0" d="M2557.84,426.6c-1.94-2.6-4.61-4.49-8.06-5.66c-0.55-0.2-0.85-0.33-0.87-0.33
				c-0.24-0.21-0.42-0.46-0.53-0.82c-0.14-0.16-0.23-0.37-0.4-0.92l0.07-1.54l-0.52-1.07V264.9c0-4.34-1.46-8.29-4.36-11.79
				c-2.91-3.5-6.55-5.54-11.61-6.17h-42.37c-5.2,0-9.47,1.64-12.69,4.9c-3.35,3.33-5.09,7.72-5.09,12.58
				c0,4.39,1.53,8.45,4.57,12.05c2.27,2.72,6.41,5.95,13.21,5.95h24.08v94.48h-0.44v6.18l-0.45,0.55v1.47
				c-4.72,10.22-9.89,18.19-15.4,23.76c-5.34,5.37-10.68,8.73-15.19,9.85c-0.82,0.04-1.79,0.15-3.02,0.35
				c-0.88,0.16-1.78,0.13-2.71-0.01c-1.15-0.2-2.3-0.31-2.64-0.22c-5.24-1.24-10.73-4.62-16.19-10.03
				c-6-5.94-11.7-14.53-16.85-25.54c-6.57-14.4-11.54-30.94-14.88-49.17c-3.35-18.44-5.01-37.49-5.01-56.61
				c-0.3-19.54,1.35-38.86,4.8-57.43c3.46-18.44,8.52-35.05,15.09-49.4c5.75-12.49,12-21.85,18.64-27.84
				c5.99-5.46,11.93-8.35,17.56-8.58c5.76,0,11.76,2.76,17.85,8.18c6.71,5.96,13.04,15.48,18.94,28.46
				c1.65,3.32,3.91,5.91,6.82,7.66c2.6,1.59,5.06,2.51,7.62,2.45c4.81,0.59,9.19-0.86,12.73-4.14c3.62-3.32,5.63-7.88,5.63-12.85
				v-2.06c0-2.36-0.72-4.84-1.91-6.69c-8.31-18.28-18.35-32.31-29.74-41.69c-23.83-19.55-51.24-19.55-75.03,0
				c-11.5,9.45-21.55,23.57-29.85,41.93c-7.79,16.72-13.66,35.74-17.39,56.59c-3.67,20.6-5.54,42.01-5.54,63.6
				c-0.34,22.05,1.49,43.91,5.32,64.97c3.87,21.29,9.78,40.71,17.61,57.69c7.35,15.87,17,29.3,28.63,39.87
				c12.24,11.16,25.56,16.99,39.63,17.34c4.32,0,8.78-0.64,13.18-1.88c4.42-1.24,8.75-3.11,12.91-5.57
				c4.09-2.41,8.26-5.62,12.49-9.49c0.54-0.55,1.13-1.1,1.73-1.67c1.78,3.24,4.02,6.31,6.73,9.18c3.42,3.67,7.93,6.55,13.67,8.61
				l0.36,0.07c1.23,0.5,2.49,0.74,3.8,0.74h1.79c4.68,0,8.85-1.86,12.05-5.42c3.16-3.48,4.85-7.66,4.85-12.27l-0.18-3.54
				C2560.71,431.51,2559.55,428.9,2557.84,426.6z"/>
			<path class="st0" d="M2053.44,330.56h-13.74V160.82c0-20.75-6.59-36.52-19.54-46.88c-12.2-9.72-25.99-14.82-41.06-15.18
				c-15.26,0-29.44,5.1-42.13,15.18c-13.4,10.65-20.25,26.42-20.25,46.88v169.73h-14.17c-5.4,0-9.95,1.97-13,5.72
				c-2.91,3.47-4.35,7.59-4.35,12.36l0.07,2.07c0.6,4.15,2.33,7.73,5.21,10.62c3.14,3.13,7.15,4.71,12.08,4.71h14.17v71.56
				c0,5.7,2.08,10.61,5.88,13.79c6.48,5.46,16.09,5.39,22.5,0c3.8-3.18,5.87-8.09,5.87-13.79v-71.56h54.49v71.56
				c0,5.73,2.09,10.61,5.86,13.79c3.31,2.77,7,4.17,11.05,4.17c4.32,0,8.19-1.4,11.43-4.16c3.79-3.18,5.91-8.07,5.91-13.8v-71.56
				h13.74c5.17,0,5.53-2.21,8.62-6.26c2.72-3.6,4.14-7.53,4.14-11.73c0-4.61-1.37-8.64-4.09-11.97
				C2060.05,333.57,2060.29,330.56,2053.44,330.56z M2009.63,334.99h-62.83V160.81c0-9.85,3.02-17.18,9.23-22.41
				c6.53-5.5,13.41-8.3,21.01-8.59l1.29,0.01l1.19-0.04c7.65,0,14.41,2.48,20.73,7.57c6.32,5.07,9.38,12.75,9.38,23.47V334.99z"/>
			<path class="st0" d="M2223.39,97.87c-7.05,0-13.97,1.42-20.65,4.26c-2.66,1.11-5.26,2.33-7.82,3.63
				c-0.78-1.3-1.71-2.47-2.79-3.49c-6.14-5.57-15.15-5.78-22.07-0.44c-4.05,3.18-6.36,8.31-6.36,14.45v12.84
				c-3.8,3.63-7.49,7.15-10.97,10.62c-4.27,4.1-8.42,7.94-12.99,11.93c-0.83,0.81-1.6,1.75-2.35,2.68
				c-1.31,1.63-2.32,3.46-3.09,5.93l-0.02,0.49c-0.46,1.43-0.72,2.8-0.72,4.15c0,4.45,1.75,8.7,5.05,12.31
				c3.24,3.57,7.28,5.57,12.74,6.11c1.97,0,4.01-0.46,6.06-1.33c1.74-0.77,3.49-1.86,5.95-3.83c0.12-0.11,0.26-0.23,0.34-0.36V437.6
				c0,5.65,1.91,10.35,5.4,13.52c6.11,5.69,16.13,5.69,22.52,0.28c3.8-3.18,5.88-8.07,5.88-13.8V145.65
				c2.38-1.91,4.75-3.71,7.11-5.4c2.94-2.1,5.88-3.65,9.14-4.81l4.41-1.66c1.18-0.04,2.37-0.14,3.38-0.3
				c0.68-0.08,1.29-0.14,1.86-0.14c7.26,0,13.55,2.6,19.24,7.98c5.46,5.16,7.99,11.36,7.99,19.49V437.6c0,3.28,0.6,6.46,1.76,9.42
				c1.45,3.9,5.26,8.54,15.15,8.54c8.18,0,13.43-2.85,15.6-8.52c1.16-3.03,1.74-6.21,1.74-9.45V160.82
				c0-17.29-6.12-32.28-18.12-44.59C2254.82,104.04,2240.24,97.87,2223.39,97.87z"/>
			<path class="st0" d="M2830.1,140.72c-0.3-1.24-0.73-2.27-1.2-3.22c-0.65-1.3-1.22-2.13-1.7-2.68
				c-7.93-11.57-18.06-20.65-30.07-26.96c-12.09-6.34-24.94-9.55-38.16-9.55h-5.16c-2.09,0-4.24,0.2-6.15,0.5
				c-5.66,0.68-11.31,2.04-16.86,4.07c-5.44,2.02-10.87,4.69-16.11,8c-13.01,8.06-22.49,17.99-28.17,29.43
				c-5.56,11.25-8.37,23.49-8.37,36.4c0,4.41,0.33,8.93,0.95,13.42c0.67,4.34,1.47,8.63,2.42,12.79c2.2,9.59,5.43,19.18,9.58,28.48
				c4.06,9.14,8.63,17.93,13.69,26.19l75.63,119.51c1.67,2.6,2.83,5.07,3.46,7.39c0.66,2.32,1.01,4.73,1.01,7.19
				c0,7.44-2.72,13.39-8.62,18.71c-6.18,5.67-12.91,8.54-20.42,8.76c-4.41,0-8.65-1.11-12.67-3.33c-4.01-2.2-7.74-6.05-11.64-12.17
				c-1.85-2.29-3.7-4.03-5.76-5.31c-5.75-3.6-13.71-2.88-19.25,1.82c-3.66,3.06-5.7,7.1-6.32,12.9c0,0.98,0.1,2.06,0.4,3.4
				c0.22,1.14,0.52,2.24,0.71,2.44c0.22,1.07,0.57,2.04,0.93,2.79c0.49,0.95,1.03,1.82,1.33,2.06c6.41,10.44,14.16,18.22,22.93,23.1
				c8.82,4.88,18.05,7.36,27.51,7.36c16.33,0,31.33-5.98,44.54-17.75c13.55-12.11,20.67-27.16,21-44.77c0-5.36-0.81-11.02-2.35-16.8
				c-1.64-5.95-4.38-11.79-8.08-17.24l-75.71-120c-3.94-6.26-7.77-13.4-11.35-21.22c-3.49-7.59-6.02-15.26-7.86-23.75
				c-0.76-2.49-1.26-4.9-1.48-7.17c-0.27-2.55-0.41-5.2-0.41-7.88c0-7.34,1.52-14.25,4.54-20.52c2.83-6.03,8.15-11.53,15.77-16.4
				c2.77-1.8,5.76-3.28,8.97-4.45c3.01-1.07,6.33-2.03,8.34-2.47c1.91,0,3.58-0.1,5.03-0.28c0.86-0.1,1.75-0.16,2.63-0.16
				c8.31,0,16.24,1.9,23.64,5.67c7.23,3.76,13.33,9.23,17.99,16.06c1.64,2.86,3.87,5.06,6.52,6.56c6.51,3.65,13.91,2.66,19.47-2.51
				c3.61-3.29,5.58-7.85,5.58-12.85v-1.57C2830.81,143.15,2830.5,141.56,2830.1,140.72z"/>
			<path class="st0" d="M1807.61,102.73c-2.99-2.75-6.59-4.32-11.51-4.86c-4.02,0-7.82,1.49-11.27,4.44
				c-2.76,2.35-6.07,6.77-6.07,14.44v289.04c0,6.32-2.02,8.78-3.56,10.09c-6.07,5.07-35.4,4.96-42.22-0.26
				c-1.72-1.3-3.97-3.74-3.97-9.83V116.74c0-7.11-2.92-11.28-5.37-13.55c-3.11-2.9-6.81-4.64-10.38-4.35
				c-4.28-0.65-8.41,0.55-12.14,3.44c-4.07,3.18-6.32,8.3-6.32,14.46v289.04c0,6.32-2.06,8.78-3.61,10.09
				c-6.37,5.42-37.48,5.42-42.62-0.46c-1.34-1.52-3.6-3.7-3.6-9.63V116.74c0-7.5-2.92-11.75-5.38-14.01
				c-2.93-2.68-6.48-4.3-10.88-4.83l-1.07-0.03l-2.2,0.1c-3.33,0.55-6.57,2.23-9.6,5.01c-2.52,2.35-5.56,6.65-5.56,13.76v289.04
				c0,15.15,5.26,27.47,15.65,36.62c9.87,8.76,20.81,13.16,32.99,13.16l26.2-0.05c6.08-0.71,11.99-2.62,17.73-5.67
				c3.12-1.69,6.1-3.76,8.85-6.19c2.79,2.42,5.81,4.44,9.01,6.05c5.73,2.9,11.61,4.66,18.43,5.41l25.83,0.01
				c11.91,0,22.78-4.19,32.33-12.46c10.43-9,15.71-21.4,15.71-36.89V116.74C1813,109.25,1810.05,105,1807.61,102.73z"/>
		</g>
	</g>
</g>
<polygon class="st1" points="2607.49,0.51 2607.49,133.03 2651.6,1.39 "/>
</svg>
