<?xml version="1.0" encoding="utf-8"?>
<!-- Generator: Adobe Illustrator 26.1.0, SVG Export Plug-In . SVG Version: 6.00 Build 0)  -->
<svg version="1.1" id="Layer_1" xmlns="http://www.w3.org/2000/svg" xmlns:xlink="http://www.w3.org/1999/xlink" x="0px" y="0px"
	 viewBox="0 0 792.17 792.17" style="enable-background:new 0 0 792.17 792.17;" xml:space="preserve">
<style type="text/css">
	.st0{fill:#C22226;stroke:#C22226;}
</style>
<g>
	<g>
		<path class="st0" d="M396.08,0.5C177.61,0.5,0.5,177.61,0.5,396.08s177.11,395.58,395.58,395.58s395.58-177.11,395.58-395.58
			S614.56,0.5,396.08,0.5z M349.64,469.05c0.08,3.2-1.44,7.22-4.25,10.61c-3.12,3.77-7.6,5.74-13,5.74h-14.64v71.56
			c0,5.7-2.09,10.61-5.89,13.79c-3.28,2.77-7.15,4.17-11.48,4.17c-4,0-7.72-1.4-11.02-4.17c-3.76-3.17-5.85-8.06-5.85-13.79v-71.56
			h-54.05v71.56c0,5.73-2.09,10.61-5.89,13.79c-6.38,5.42-16,5.46-22.48,0c-3.78-3.18-5.86-8.09-5.86-13.79v-71.56h-14.19
			c-6.81,0-10.95-3.23-13.2-5.94c-3.05-3.62-4.58-7.66-4.58-12.05c0-4.87,1.74-9.22,5.07-12.58c3.25-3.27,7.53-4.92,12.72-4.92
			h14.19V235.19c0-6.13,2.25-11.28,6.33-14.46c6.93-5.35,16.43-5.1,22.5,0.44c3.58,3.33,5.39,8.02,5.39,14.02v214.73h54.05V235.19
			c0-6.13,2.25-11.28,6.36-14.46c6.87-5.33,16.43-5.08,22.48,0.44c2.47,2.29,5.4,6.56,5.4,14.02v214.73h14.64
			c5.78,0,10.29,1.91,13.44,5.72C348.89,459.38,350.24,464.12,349.64,469.05z M625.75,525.15c0,15.49-5.29,27.89-15.71,36.89
			c-9.55,8.27-20.42,12.46-32.33,12.46l-25.83-0.01c-6.82-0.74-12.7-2.51-18.43-5.41c-3.2-1.61-6.22-3.63-9.01-6.05
			c-2.75,2.42-5.73,4.5-8.85,6.19c-5.73,3.05-11.65,4.96-17.73,5.67l-26.2,0.05c-12.18,0-23.12-4.4-32.99-13.16
			c-10.39-9.15-15.65-21.47-15.65-36.62V236.11c0-7.11,3.04-11.41,5.56-13.76c3.03-2.78,6.27-4.47,9.6-5.01l2.2-0.1l1.07,0.03
			c4.41,0.53,7.95,2.15,10.88,4.83c2.46,2.27,5.38,6.52,5.38,14.01v289.04c0,5.93,2.27,8.11,3.6,9.63
			c5.14,5.88,36.25,5.88,42.62,0.46c1.56-1.32,3.61-3.78,3.61-10.09V236.11c0-6.15,2.25-11.28,6.32-14.46
			c3.72-2.89,7.86-4.09,12.14-3.44c3.57-0.29,7.27,1.45,10.38,4.35c2.45,2.27,5.37,6.44,5.37,13.55v289.04
			c0,6.1,2.26,8.54,3.97,9.83c6.81,5.22,36.14,5.33,42.22,0.26c1.54-1.31,3.56-3.78,3.56-10.09V236.11c0-7.66,3.31-12.09,6.07-14.44
			c3.45-2.95,7.25-4.44,11.28-4.44c4.92,0.55,8.52,2.12,11.51,4.86c2.45,2.27,5.39,6.52,5.39,14.01V525.15z"/>
	</g>
</g>
</svg>
